<svg xmlns="http://www.w3.org/2000/svg" width="175.955" height="153.986" viewBox="0 0 175.955 153.986">
  <g id="web-development-svgrepo-com_1_" data-name="web-development-svgrepo-com (1)" transform="translate(0 -24.971)">
    <g id="Group_2" data-name="Group 2" transform="translate(0 24.971)">
      <g id="Group_1" data-name="Group 1">
        <path id="Path_9" data-name="Path 9" d="M188.263,109.726a2.089,2.089,0,0,0-2.42-1.694l-7.5,1.322a28.132,28.132,0,0,0-3.415-5.9l4.9-5.838a2.088,2.088,0,0,0-.258-2.943l-6.56-5.5a2.09,2.09,0,0,0-2.944.257l-4.9,5.835a28,28,0,0,0-6.409-2.334V85.308a2.089,2.089,0,0,0-2.089-2.09h-8.563a2.089,2.089,0,0,0-2.089,2.09v7.615a27.991,27.991,0,0,0-6.41,2.334l-4.9-5.835a2.089,2.089,0,0,0-2.943-.257l-6.56,5.5a2.088,2.088,0,0,0-.258,2.943l4.9,5.838a28.152,28.152,0,0,0-3.415,5.9l-7.5-1.322a2.091,2.091,0,0,0-2.42,1.694l-1.487,8.434a2.089,2.089,0,0,0,1.694,2.419l7.506,1.325a28.079,28.079,0,0,0,1.179,6.716l-6.6,3.808a2.088,2.088,0,0,0-.765,2.853l4.281,7.417a2.087,2.087,0,0,0,2.854.764l6.6-3.811a28.455,28.455,0,0,0,5.221,4.384L134.4,151.2a2.088,2.088,0,0,0,1.248,2.677L143.7,156.8a2.088,2.088,0,0,0,2.677-1.249l2.606-7.161a28.27,28.27,0,0,0,6.818,0l2.607,7.161a2.089,2.089,0,0,0,2.677,1.249l8.048-2.929a2.088,2.088,0,0,0,1.248-2.677l-2.607-7.16a28.375,28.375,0,0,0,5.221-4.384l6.6,3.811a2.089,2.089,0,0,0,2.853-.764l4.281-7.417a2.086,2.086,0,0,0-.764-2.853l-6.6-3.808a28.162,28.162,0,0,0,1.179-6.716l7.506-1.325a2.089,2.089,0,0,0,1.694-2.419Zm-35.872,21.836a11.488,11.488,0,1,1,11.489-11.488A11.488,11.488,0,0,1,152.391,131.562Z" transform="translate(-64.413 -57.596)" fill="#38bdf8"/>
        <path id="Path_10" data-name="Path 10" d="M161.3,24.971H14.655A14.672,14.672,0,0,0,0,39.627V135.2a14.672,14.672,0,0,0,14.655,14.656H61.9l-8.968,19.775a6.6,6.6,0,0,0,6.009,9.323h58.073a6.6,6.6,0,0,0,5.857-9.641l-8.825-19.458H161.3A14.672,14.672,0,0,0,175.955,135.2V39.627A14.67,14.67,0,0,0,161.3,24.971ZM162.76,135.2a1.46,1.46,0,0,1-1.459,1.459H14.655A1.46,1.46,0,0,1,13.2,135.2V39.627a1.461,1.461,0,0,1,1.459-1.459H161.3a1.461,1.461,0,0,1,1.459,1.459V135.2Z" transform="translate(0 -24.971)" fill="#020617"/>
      </g>
    </g>
  </g>
</svg>
