<svg id="airline-manage-gates-svgrepo-com" xmlns="http://www.w3.org/2000/svg" width="107" height="107" viewBox="0 0 107 107">
  <path id="Path_31" data-name="Path 31" d="M50.724,39.362H44.049V32.687A10.023,10.023,0,0,0,34.037,22.675H20.687A10.023,10.023,0,0,0,10.675,32.687v6.675H4V32.687A16.707,16.707,0,0,1,20.687,16h13.35A16.707,16.707,0,0,1,50.724,32.687Z" transform="translate(9.35 37.398)" fill="#fff"/>
  <path id="Path_32" data-name="Path 32" d="M22.687,10.675A10.012,10.012,0,1,1,12.675,20.687,10.012,10.012,0,0,1,22.687,10.675m0-6.675A16.687,16.687,0,1,0,39.374,20.687,16.687,16.687,0,0,0,22.687,4Z" transform="translate(14.024 9.35)" fill="#fff"/>
  <rect id="Rectangle_13" data-name="Rectangle 13" width="94" height="7" transform="translate(6 87)" fill="#fff"/>
  <path id="Path_33" data-name="Path 33" d="M26.675,4v6.675H41.98L20,32.655l4.719,4.719L46.7,15.394V30.7h6.675V4Z" transform="translate(46.748 9.35)" fill="#fff"/>
  <rect id="_Transparent_Rectangle_" data-name="&lt;Transparent Rectangle&gt;" width="107" height="107" fill="none"/>
</svg>
