<svg xmlns="http://www.w3.org/2000/svg" width="125.989" height="153.986" viewBox="0 0 125.989 153.986">
  <path id="check-file-svgrepo-com" d="M52,1a7,7,0,0,0-4.949,2.05l-42,42A7,7,0,0,0,3,50v83.992a21,21,0,0,0,21,21h83.992a21,21,0,0,0,21-21V22a21,21,0,0,0-21-21Zm7,14h49a7,7,0,0,1,7,7v111.99a7,7,0,0,1-7,7H24a7,7,0,0,1-7-7V56.995H52a7,7,0,0,0,7-7ZM45,43H26.9L45,24.9ZM99.369,82.474a7,7,0,1,0-10.754-8.962L58.525,109.62,42.946,94.042a7,7,0,1,0-9.9,9.9l21,21a7,7,0,0,0,10.326-.468Z" transform="translate(-3 -1)" fill="#38bdf8" fill-rule="evenodd"/>
</svg>
