<svg id="Page-1" xmlns="http://www.w3.org/2000/svg" width="180" height="106.894" viewBox="0 0 180 106.894">
  <g id="Dribbble-Light-Preview">
    <g id="icons">
      <path id="view_simple-_815_" data-name="view_simple-[#815]" d="M312,4456.447a18.008,18.008,0,1,1-18-18.528,18.263,18.263,0,0,1,18,18.528m-18,34.918a85.4,85.4,0,0,1-68.409-34.918,84.473,84.473,0,0,1,136.818,0A85.4,85.4,0,0,1,294,4491.365M294,4403c-38.484,0-72.009,21.558-90,53.447,17.991,31.892,51.516,53.446,90,53.446s72.009-21.555,90-53.446c-17.991-31.89-51.516-53.447-90-53.447" transform="translate(-204 -4403)" fill="#fff" fill-rule="evenodd"/>
    </g>
  </g>
</svg>
