<svg xmlns="http://www.w3.org/2000/svg" width="107.773" height="153.986" viewBox="0 0 107.773 153.986">
  <g id="Shopicon" transform="translate(0.004 0.031)">
    <path id="Path_9" data-name="Path 9" d="M33.093,102.071v55.884l30.79-15.395,30.79,15.395V102.071a53.883,53.883,0,1,0-61.581,0Zm46.185,30.975-8.515-4.253-6.885-3.445L57,128.788l-8.515,4.256V109.51a53.583,53.583,0,0,0,30.79,0ZM63.883,19.4A38.484,38.484,0,1,1,25.4,57.882,38.484,38.484,0,0,1,63.883,19.4Z" transform="translate(-10 -4)" fill="#020617"/>
    <path id="Path_10" data-name="Path 10" d="M41.092,58.185A23.092,23.092,0,1,0,18,35.092,23.092,23.092,0,0,0,41.092,58.185Zm0-30.79a7.7,7.7,0,1,1-7.7,7.7A7.7,7.7,0,0,1,41.092,27.395Z" transform="translate(12.791 18.794)" fill="#38bdf8"/>
  </g>
</svg>
