<svg xmlns="http://www.w3.org/2000/svg" width="149.014" height="152.341" viewBox="0 0 149.014 152.341">
  <g id="seo-1-svgrepo-com" transform="translate(-5.591)">
    <path id="Path_4" data-name="Path 4" d="M133.431,116.4a71.724,71.724,0,1,0-15.262,14.286l21.663,21.66,14.774-14.774Zm-16.881-5.437A55.474,55.474,0,1,1,132.8,71.729,55.28,55.28,0,0,1,116.549,110.958Z" transform="translate(0)" fill="#020617"/>
    <path id="Path_5" data-name="Path 5" d="M121.781,202.426l-1.695-.236c-4.332-.612-5.886-2.118-5.886-4.331,0-2.5,1.789-4.285,5.038-4.285a13.516,13.516,0,0,1,7.675,2.5.471.471,0,0,0,.659-.143l2.26-3.482a.423.423,0,0,0-.1-.66,17.6,17.6,0,0,0-10.357-3.2c-6.592,0-10.83,3.861-10.83,9.652,0,5.319,3.485,8.287,9.652,9.133l1.695.236c4.426.612,5.838,2.12,5.838,4.426,0,2.684-2.213,4.614-6.027,4.614a14.317,14.317,0,0,1-8.71-3.39.423.423,0,0,0-.659.048l-2.919,3.39a.519.519,0,0,0,.094.708,18.057,18.057,0,0,0,11.771,4.235c7.956,0,12.053-4.235,12.053-9.933C131.339,206.192,127.948,203.274,121.781,202.426Z" transform="translate(-71.459 -132.472)" fill="#38bdf8"/>
    <path id="Path_6" data-name="Path 6" d="M227.1,190.322H207.047a.445.445,0,0,0-.47.472v31.074a.445.445,0,0,0,.47.472H227.1a.445.445,0,0,0,.472-.472V217.82a.445.445,0,0,0-.472-.472H212.415l-.282-.284v-8.1l.282-.283H224.8a.445.445,0,0,0,.472-.472v-4.049a.445.445,0,0,0-.472-.469H212.415l-.282-.284V195.6l.282-.281H227.1a.446.446,0,0,0,.472-.472v-4.05A.445.445,0,0,0,227.1,190.322Z" transform="translate(-141.184 -133.693)" fill="#38bdf8"/>
    <path id="Path_7" data-name="Path 7" d="M305.77,188.584c-5.509,0-9.652,2.637-11.3,7.722-.66,1.977-.848,3.766-.848,8.8s.188,6.827.848,8.8c1.647,5.086,5.791,7.72,11.3,7.72,5.557,0,9.7-2.635,11.348-7.72.658-1.977.848-3.766.848-8.8s-.19-6.827-.848-8.8C315.467,191.221,311.327,188.584,305.77,188.584Zm5.979,23.871a6.328,6.328,0,0,1-11.911,0c-.376-1.177-.565-2.825-.565-7.344,0-4.569.188-6.169.565-7.346a6.328,6.328,0,0,1,11.911,0c.376,1.177.567,2.778.567,7.346C312.316,209.629,312.125,211.278,311.749,212.455Z" transform="translate(-202.33 -132.472)" fill="#38bdf8"/>
  </g>
</svg>
