<svg id="wireframe-svgrepo-com" xmlns="http://www.w3.org/2000/svg" width="153.986" height="153.986" viewBox="0 0 153.986 153.986">
  <g id="Group_4" data-name="Group 4">
    <g id="Group_3" data-name="Group 3">
      <path id="Path_11" data-name="Path 11" d="M0,0V153.986H153.986V0ZM144.558,144.558H9.428V33.416H144.558Zm0-120.57H9.428V9.428H144.558Z" fill="#020617"/>
    </g>
  </g>
  <g id="Group_6" data-name="Group 6" transform="translate(16.164 40.035)">
    <g id="Group_5" data-name="Group 5">
      <path id="Path_12" data-name="Path 12" d="M53.746,133.114v36.617H90.363V133.114ZM80.935,160.3H63.174V142.541H80.935Z" transform="translate(-53.746 -133.114)" fill="#38bdf8"/>
    </g>
  </g>
  <g id="Group_8" data-name="Group 8" transform="translate(58.685 40.035)">
    <g id="Group_7" data-name="Group 7">
      <path id="Path_13" data-name="Path 13" d="M195.125,133.114v36.617h36.617V133.114ZM222.314,160.3H204.553V142.541h17.762Z" transform="translate(-195.125 -133.114)" fill="#38bdf8"/>
    </g>
  </g>
  <g id="Group_10" data-name="Group 10" transform="translate(101.204 40.035)">
    <g id="Group_9" data-name="Group 9">
      <path id="Path_14" data-name="Path 14" d="M336.5,133.114v36.617h36.617V133.114ZM363.691,160.3H345.93V142.541h17.762Z" transform="translate(-336.502 -133.114)" fill="#38bdf8"/>
    </g>
  </g>
  <g id="Group_12" data-name="Group 12" transform="translate(29.76 83.435)">
    <g id="Group_11" data-name="Group 11">
      <rect id="Rectangle_1" data-name="Rectangle 1" width="9.428" height="9.428"/>
    </g>
  </g>
  <g id="Group_14" data-name="Group 14" transform="translate(72.279 83.435)">
    <g id="Group_13" data-name="Group 13">
      <rect id="Rectangle_2" data-name="Rectangle 2" width="9.428" height="9.428"/>
    </g>
  </g>
  <g id="Group_16" data-name="Group 16" transform="translate(114.798 83.435)">
    <g id="Group_15" data-name="Group 15">
      <rect id="Rectangle_3" data-name="Rectangle 3" width="9.428" height="9.428"/>
    </g>
  </g>
  <g id="Group_18" data-name="Group 18" transform="translate(19.484 99.62)">
    <g id="Group_17" data-name="Group 17">
      <rect id="Rectangle_4" data-name="Rectangle 4" width="31.426" height="9.428"/>
    </g>
  </g>
  <g id="Group_20" data-name="Group 20" transform="translate(19.484 114.075)">
    <g id="Group_19" data-name="Group 19">
      <rect id="Rectangle_5" data-name="Rectangle 5" width="31.426" height="9.428"/>
    </g>
  </g>
  <g id="Group_22" data-name="Group 22" transform="translate(19.484 128.531)">
    <g id="Group_21" data-name="Group 21">
      <rect id="Rectangle_6" data-name="Rectangle 6" width="16.813" height="9.428"/>
    </g>
  </g>
  <g id="Group_24" data-name="Group 24" transform="translate(61.28 99.62)">
    <g id="Group_23" data-name="Group 23">
      <rect id="Rectangle_7" data-name="Rectangle 7" width="31.426" height="9.428"/>
    </g>
  </g>
  <g id="Group_26" data-name="Group 26" transform="translate(61.28 114.075)">
    <g id="Group_25" data-name="Group 25">
      <rect id="Rectangle_8" data-name="Rectangle 8" width="31.426" height="9.428"/>
    </g>
  </g>
  <g id="Group_28" data-name="Group 28" transform="translate(61.28 128.531)">
    <g id="Group_27" data-name="Group 27">
      <rect id="Rectangle_9" data-name="Rectangle 9" width="16.813" height="9.428"/>
    </g>
  </g>
  <g id="Group_30" data-name="Group 30" transform="translate(103.077 99.62)">
    <g id="Group_29" data-name="Group 29">
      <rect id="Rectangle_10" data-name="Rectangle 10" width="31.426" height="9.428"/>
    </g>
  </g>
  <g id="Group_32" data-name="Group 32" transform="translate(103.077 114.075)">
    <g id="Group_31" data-name="Group 31">
      <rect id="Rectangle_11" data-name="Rectangle 11" width="31.426" height="9.428"/>
    </g>
  </g>
  <g id="Group_34" data-name="Group 34" transform="translate(103.077 128.531)">
    <g id="Group_33" data-name="Group 33">
      <rect id="Rectangle_12" data-name="Rectangle 12" width="16.813" height="9.428"/>
    </g>
  </g>
</svg>
