<svg xmlns="http://www.w3.org/2000/svg" width="166.682" height="153.986" viewBox="0 0 166.682 153.986">
  <g id="web-development-svgrepo-com_2_" data-name="web-development-svgrepo-com (2)" transform="translate(0 -15.992)">
    <g id="Group_41" data-name="Group 41" transform="translate(0 15.992)">
      <g id="Group_40" data-name="Group 40" transform="translate(0 0)">
        <path id="Path_24" data-name="Path 24" d="M112.289,149.508a7.4,7.4,0,0,1-2.214-2.084,7.53,7.53,0,0,1-.7-1.24H11.226V49.447H144.444v63.166a7.427,7.427,0,0,1,6.232,4.683,7.394,7.394,0,0,1,4.993-.762V25.347a9.365,9.365,0,0,0-9.354-9.355H9.355A9.366,9.366,0,0,0,0,25.347V148.055a9.365,9.365,0,0,0,9.355,9.355H111.436a7.406,7.406,0,0,1,.853-7.9ZM134.171,31.7a3.454,3.454,0,0,1,3.454-3.454h3.454a3.454,3.454,0,0,1,3.454,3.454v3.915a3.454,3.454,0,0,1-3.454,3.454h-3.454a3.454,3.454,0,0,1-3.454-3.454Zm-16.062,0a3.454,3.454,0,0,1,3.454-3.454h3.454a3.454,3.454,0,0,1,3.454,3.454v3.915a3.454,3.454,0,0,1-3.454,3.454h-3.454a3.454,3.454,0,0,1-3.454-3.454Zm-16.062,0a3.455,3.455,0,0,1,3.454-3.454h3.454A3.454,3.454,0,0,1,112.41,31.7v3.915a3.454,3.454,0,0,1-3.454,3.454H105.5a3.454,3.454,0,0,1-3.454-3.454Z" transform="translate(0 -15.992)" fill="#38bdf8"/>
        <path id="Path_25" data-name="Path 25" d="M340.607,298.715l-1.038-5.886a1.458,1.458,0,0,0-1.689-1.182l-5.235.922a19.635,19.635,0,0,0-2.384-4.12l3.419-4.076a1.456,1.456,0,0,0-.18-2.054l-4.578-3.842a1.459,1.459,0,0,0-2.055.18l-3.416,4.072a19.567,19.567,0,0,0-4.474-1.629v-5.316a1.459,1.459,0,0,0-1.458-1.458h-5.978a1.459,1.459,0,0,0-1.458,1.458V281.1a19.549,19.549,0,0,0-4.474,1.629l-3.417-4.072a1.458,1.458,0,0,0-2.054-.18l-4.579,3.842a1.458,1.458,0,0,0-.18,2.055l3.42,4.075a19.7,19.7,0,0,0-2.384,4.12l-5.235-.923a1.46,1.46,0,0,0-1.689,1.182l-1.038,5.886a1.457,1.457,0,0,0,1.182,1.689l5.239.923a19.635,19.635,0,0,0,.823,4.689l-4.6,2.657a1.457,1.457,0,0,0-.534,1.991l2.988,5.176a1.458,1.458,0,0,0,1.991.533l4.608-2.661a19.643,19.643,0,0,0,3.644,3.06l-1.82,5a1.458,1.458,0,0,0,.871,1.868l5.616,2.044a1.456,1.456,0,0,0,1.869-.871l1.819-5a19.825,19.825,0,0,0,4.758,0l1.82,5a1.457,1.457,0,0,0,1.37.96,1.438,1.438,0,0,0,.5-.089l5.617-2.044a1.458,1.458,0,0,0,.87-1.868l-1.82-5a19.75,19.75,0,0,0,3.644-3.06l4.608,2.661a1.462,1.462,0,0,0,.729.2,1.486,1.486,0,0,0,.377-.05,1.457,1.457,0,0,0,.885-.679l2.988-5.177a1.457,1.457,0,0,0-.534-1.991l-4.6-2.657a19.644,19.644,0,0,0,.822-4.689l5.239-.924a1.454,1.454,0,0,0,.941-.6A1.429,1.429,0,0,0,340.607,298.715Zm-26.074,9.354a8.018,8.018,0,1,1,8.018-8.018A8.019,8.019,0,0,1,314.533,308.069Z" transform="translate(-173.948 -171.786)" fill="#38bdf8"/>
        <g id="Group_39" data-name="Group 39" transform="translate(30.601 44.849)">
          <path id="Path_26" data-name="Path 26" d="M111.865,192.27a4.882,4.882,0,0,0-2.817-4.413L93.388,180.58l15.661-7.277a4.884,4.884,0,0,0,2.816-4.413v-.127a4.859,4.859,0,0,0-4.871-4.862,4.893,4.893,0,0,0-2.048.45L79.909,175.994a4.883,4.883,0,0,0-2.815,4.413v.348a4.89,4.89,0,0,0,2.815,4.413l25.04,11.644a4.867,4.867,0,0,0,6.916-4.414v-.127Z" transform="translate(-77.094 -150.041)" fill="#38bdf8"/>
          <path id="Path_27" data-name="Path 27" d="M188.318,130.979a4.883,4.883,0,0,0-3.93-2h-.125a4.852,4.852,0,0,0-4.636,3.38l-16.5,51.113a4.868,4.868,0,0,0,4.637,6.347h.125a4.849,4.849,0,0,0,4.633-3.38l16.494-51.109A4.878,4.878,0,0,0,188.318,130.979Z" transform="translate(-128.843 -128.982)" fill="#38bdf8"/>
          <path id="Path_28" data-name="Path 28" d="M259.449,175.994l-25.038-11.643a4.867,4.867,0,0,0-6.918,4.413v.127a4.89,4.89,0,0,0,2.817,4.415l15.66,7.276-15.661,7.276a4.882,4.882,0,0,0-2.817,4.413v.127a4.869,4.869,0,0,0,6.92,4.413l25.039-11.644a4.886,4.886,0,0,0,2.813-4.411v-.348A4.887,4.887,0,0,0,259.449,175.994Z" transform="translate(-167.796 -150.041)" fill="#38bdf8"/>
        </g>
      </g>
    </g>
  </g>
</svg>
