<svg xmlns="http://www.w3.org/2000/svg" width="169.674" height="153.986" viewBox="0 0 169.674 153.986">
  <g id="design-education-painting-svgrepo-com" transform="translate(-23.432 -58.249)">
    <path id="Path_17" data-name="Path 17" d="M347.983,72.058a17.052,17.052,0,0,0-4.9-12.49,4.506,4.506,0,0,0-6.372,6.372,8.125,8.125,0,0,1,2.267,5.967,8.5,8.5,0,0,1-2.267,5.783c-2.867,2.867-31.444,27.955-53.762,47.476l-5.47-5.47C293.767,101.055,313.986,78,321.895,69.251l1.8,1.8a4.506,4.506,0,0,0,6.373-6.372l-5.11-5.11a4.505,4.505,0,0,0-3.186-1.32h0a4.506,4.506,0,0,0-3.186,1.32c-2.742,2.742-19.514,21.791-34.648,39.061A52.759,52.759,0,0,0,267.965,83.1c-9.451-5.946-20.469-8.96-32.749-8.96a61.423,61.423,0,0,0-7.943.507,4.506,4.506,0,1,0,1.169,8.935,52.406,52.406,0,0,1,6.774-.431c18.7,0,34.382,8.383,42.515,22.562-7.59,8.673-14.11,16.142-17.255,19.746-5.614.765-9.8,3.062-12.756,7-2.746,3.663-3.95,8.037-5.224,12.668-1.536,5.584-3.125,11.358-7.656,15.889a4.506,4.506,0,0,0,3.186,7.692c12.126,0,21.737-2.585,28.567-7.682a26.625,26.625,0,0,0,10.69-18.948c11.61-10.14,61.631-53.856,65.8-58.02A17.456,17.456,0,0,0,347.983,72.058Zm-71.839,59.053-3.929,3.432-4.114-4.114,3.43-3.93Zm-14.942,22.7c-3.544,2.646-8.261,4.409-14.083,5.272a62.365,62.365,0,0,0,4.065-11.559c2.088-7.59,3.36-11.4,8.506-12.758l8.32,8.32A17.384,17.384,0,0,1,261.2,153.808Z" transform="translate(-154.88 0)" fill="#38bdf8"/>
    <path id="Path_18" data-name="Path 18" d="M162.8,156.787a4.49,4.49,0,0,0,1.953-.448c.4-.2.82-.387,1.234-.57a4.506,4.506,0,1,0-3.639-8.244c-.506.223-1.014.458-1.509.7a4.506,4.506,0,0,0,1.96,8.565Z" transform="translate(-104.477 -68.865)" fill="#38bdf8"/>
    <path id="Path_19" data-name="Path 19" d="M90.885,271.275a4.51,4.51,0,0,0-4.556,4.455c-.194,17.322-2.809,25.05-17.79,25.05-8.4,0-17.211-6.143-24.18-16.855-7.684-11.811-11.916-27.146-11.916-43.18,0-20.815,6.286-38.135,17.7-48.767A4.506,4.506,0,1,0,44,185.384a60.742,60.742,0,0,0-15.461,24.188,91.569,91.569,0,0,0-5.107,31.173c0,17.758,4.75,34.838,13.374,48.094,8.663,13.316,20.229,20.952,31.733,20.952,11,0,18.672-3.872,22.794-11.508,3.538-6.557,3.924-15.027,4.007-22.452A4.505,4.505,0,0,0,90.885,271.275Z" transform="translate(0 -97.556)" fill="#38bdf8"/>
    <path id="Path_20" data-name="Path 20" d="M318.016,222.977A15.012,15.012,0,1,0,303,237.989,15.028,15.028,0,0,0,318.016,222.977Zm-21.011,0a6,6,0,1,1,6,6A6.007,6.007,0,0,1,297,222.977Z" transform="translate(-204.958 -115.988)" fill="#38bdf8"/>
    <path id="Path_21" data-name="Path 21" d="M144.206,261.937a15.011,15.011,0,1,0-15.012-15.011A15.028,15.028,0,0,0,144.206,261.937Zm0-21.011a6,6,0,1,1-6,6A6.007,6.007,0,0,1,144.206,240.926Z" transform="translate(-81.935 -134.54)" fill="#38bdf8"/>
    <path id="Path_22" data-name="Path 22" d="M108.176,400.017a15.012,15.012,0,1,0-15.012,15.011A15.029,15.029,0,0,0,108.176,400.017Zm-15.012,6a6,6,0,1,1,6-6A6.006,6.006,0,0,1,93.165,406.016Z" transform="translate(-42.393 -253.142)" fill="#38bdf8"/>
    <path id="Path_23" data-name="Path 23" d="M163.172,570.936a15.011,15.011,0,1,0-15.011-15.011A15.029,15.029,0,0,0,163.172,570.936Zm0-21.011a6,6,0,1,1-6,6A6.007,6.007,0,0,1,163.172,549.925Z" transform="translate(-96.629 -373.925)" fill="#38bdf8"/>
  </g>
</svg>
