<svg xmlns="http://www.w3.org/2000/svg" width="124.75" height="112" viewBox="0 0 124.75 112">
  <path id="download-svgrepo-com" d="M92.25,86.875h.064M94.8,67.75h3.825c5.941,0,8.911,0,11.254.97a12.753,12.753,0,0,1,6.9,6.9c.97,2.343.97,5.314.97,11.254s0,8.911-.97,11.254a12.753,12.753,0,0,1-6.9,6.9c-2.343.97-5.314.97-11.254.97h-76.5c-5.941,0-8.911,0-11.254-.97a12.752,12.752,0,0,1-6.9-6.9C3,95.786,3,92.816,3,86.875s0-8.911.971-11.254a12.752,12.752,0,0,1,6.9-6.9c2.343-.97,5.313-.97,11.254-.97H25.95m34.425,6.375V4m0,70.125L41.25,55M60.375,74.125,79.5,55" transform="translate(2 1)" fill="rgba(255,255,255,0)" stroke="#fff" stroke-linecap="round" stroke-linejoin="round" stroke-width="10"/>
</svg>
