<svg xmlns="http://www.w3.org/2000/svg" width="140.316" height="153.986" viewBox="0 0 140.316 153.986">
  <g id="leadership-svgrepo-com" transform="translate(-22.728)">
    <g id="Group_36" data-name="Group 36" transform="translate(22.728 78.795)">
      <g id="Group_35" data-name="Group 35">
        <path id="Path_15" data-name="Path 15" d="M92.886,261.992A70.237,70.237,0,0,0,22.728,332.15a5.033,5.033,0,0,0,5.033,5.033h130.25a5.033,5.033,0,0,0,5.033-5.033A70.238,70.238,0,0,0,92.886,261.992ZM33,327.117a60.228,60.228,0,0,1,46.8-53.624l6.284,6.284-2.3,27.795a4.918,4.918,0,0,0,.887,3.247l6.4,9.049a2.2,2.2,0,0,0,3.6,0l6.4-9.049a4.921,4.921,0,0,0,.887-3.247l-2.3-27.795,6.284-6.284a60.228,60.228,0,0,1,46.8,53.624Z" transform="translate(-22.728 -261.992)" fill="#020617"/>
      </g>
    </g>
    <g id="Group_38" data-name="Group 38" transform="translate(52.58)">
      <g id="Group_37" data-name="Group 37">
        <path id="Path_16" data-name="Path 16" d="M198.094,10.977a6.606,6.606,0,0,0-7.357,2.288l-7.361,9.78L166.768,2.453a6.592,6.592,0,0,0-10.262,0L139.948,22.982l-6.058-8.253a6.592,6.592,0,0,0-11.906,3.9V59.244a8.517,8.517,0,0,0,8.507,8.507h63.6a8.517,8.517,0,0,0,8.507-8.507V17.228A6.584,6.584,0,0,0,198.094,10.977ZM132.05,29.231l3.654,4.977a5.033,5.033,0,0,0,7.974.181l17.959-22.265L179.6,34.39a5.033,5.033,0,0,0,7.938-.133l5-6.638v13.61H132.05ZM192.53,57.685H132.05V51.3h60.48v6.39Z" transform="translate(-121.984 0)" fill="#38bdf8"/>
      </g>
    </g>
  </g>
</svg>
