<svg xmlns="http://www.w3.org/2000/svg" width="96.502" height="111.935" viewBox="0 0 96.502 111.935">
  <path id="play-svgrepo-com" d="M75.836,38.095c8.748,5.467,13.122,8.2,14.622,11.7a12.152,12.152,0,0,1,0,9.573c-1.5,3.5-5.874,6.233-14.622,11.7L34.749,96.751c-9.709,6.068-14.564,9.1-18.57,8.78A12.151,12.151,0,0,1,7.4,100.664C5,97.438,5,91.713,5,80.263V28.9C5,17.453,5,11.728,7.4,8.5a12.152,12.152,0,0,1,8.782-4.867c4.006-.322,8.861,2.712,18.57,8.78Z" transform="translate(0 1.385)" fill="none" stroke="#fff" stroke-linejoin="round" stroke-width="10"/>
</svg>
