<svg xmlns="http://www.w3.org/2000/svg" width="153.98" height="153.986" viewBox="0 0 153.98 153.986">
  <path id="puzzle-piece-svgrepo-com" d="M71.844,1.023C78.775.921,84.737,4.685,90,9.934L90,9.94l8.838,8.838a27.68,27.68,0,1,1,38.4,38.4l8.837,8.837.006.006c5.249,5.261,9.012,11.224,8.911,18.155-.1,6.878-3.988,12.625-8.926,17.528l-.009.009-8.947,8.947a9.39,9.39,0,0,1-10.361,1.875,10.027,10.027,0,0,1-6.041-7.522,13.654,13.654,0,1,0-15.7,15.7,10.024,10.024,0,0,1,7.522,6.041,9.389,9.389,0,0,1-1.874,10.36l-8.972,8.972-.009.009c-4.895,4.93-10.635,8.808-17.505,8.909-6.923.1-12.878-3.654-18.132-8.894l-.006-.006-8.86-8.86a27.68,27.68,0,1,1-38.4-38.4L9.94,90,9.934,90C4.685,84.737.921,78.775,1.023,71.844c.1-6.878,3.988-12.624,8.926-17.527l.01-.009,8.948-8.948a9.389,9.389,0,0,1,10.361-1.875,10.025,10.025,0,0,1,6.041,7.522,13.655,13.655,0,1,0,15.7-15.7,10.025,10.025,0,0,1-7.522-6.041,9.389,9.389,0,0,1,1.875-10.361l8.948-8.947.01-.01C59.22,5.011,64.966,1.125,71.844,1.023Zm.207,14.023c-1.434.021-3.855.828-7.789,4.792l-.018.019-3.81,3.81A27.68,27.68,0,1,1,23.668,60.432l-3.811,3.811-.019.018c-3.963,3.934-4.77,6.355-4.792,7.79-.02,1.385.668,3.884,4.814,8.041l0,0L36.2,96.434a7.013,7.013,0,0,1-3.972,11.9,13.655,13.655,0,1,0,15.456,15.456,7.013,7.013,0,0,1,11.9-3.972l16.363,16.363.006,0h0c4.139,4.128,6.632,4.814,8.013,4.794,1.431-.021,3.848-.826,7.767-4.775l.018-.019,3.834-3.834a27.68,27.68,0,1,1,36.765-36.766l3.809-3.809.019-.018c3.963-3.933,4.771-6.355,4.792-7.789.02-1.385-.668-3.884-4.811-8.038l0,0-16.341-16.34a7.013,7.013,0,0,1,3.973-11.9,13.655,13.655,0,1,0-15.456-15.455,7.012,7.012,0,0,1-11.9,3.972L80.094,19.863l0,0C75.935,15.715,73.436,15.026,72.051,15.047Z" transform="translate(-1.021 -1.021)" fill="#38bdf8" fill-rule="evenodd"/>
</svg>
