<svg xmlns="http://www.w3.org/2000/svg" width="153.802" height="153.986" viewBox="0 0 153.802 153.986">
  <path id="rocket-svgrepo-com" d="M31.562,132.577c-3.012,6.263-4.916,10.44-21.686,11.049.48-16.181,3.568-17.917,9.74-21a53.739,53.739,0,0,0,9.309-5.582l-5.841-7.457a42.264,42.264,0,0,1-7.745,4.45C5.051,119.173.2,124.223.2,148.307l.082,4.9L5,153.1c25.422,0,30.175-5.745,34.937-15.634a61.063,61.063,0,0,1,3.381-6.556l-7.112-6.46a49.173,49.173,0,0,0-4.642,8.114Zm74.224-104.1a19.233,19.233,0,1,0,19.236,19.231,19.254,19.254,0,0,0-19.236-19.231Zm0,28.837a9.6,9.6,0,1,1,9.606-9.6A9.619,9.619,0,0,1,105.786,57.317ZM153.566,4.6A4.8,4.8,0,0,0,149.13.109S122.293-1.848,96.473,7.8c-9.433,3.525-17.2,9.1-24.444,17.557C65.986,32.4,59.982,45.141,54.683,55.72c-2.048,4.081-4,7.99-5.664,10.973H22.34A4.811,4.811,0,0,0,18.753,68.3L1.172,87.358a4.8,4.8,0,0,0,2.518,7.86l28.616,6.541c1.952,2.407,5.2,6.009,10.4,11.778l10.843,12.018,5.836,24.688a4.779,4.779,0,0,0,3.18,3.453,4.931,4.931,0,0,0,1.482.235,4.784,4.784,0,0,0,3.122-1.156L84.934,135.1a4.8,4.8,0,0,0,1.674-3.64V106.713c2.388-1.482,6.623-3.769,10.608-6,10.858-6.067,27.072-13.625,33.791-19.6,9.467-8.412,12.91-14.579,16.3-23.7,8.047-21.682,6.34-51.559,6.258-52.82Zm-15.25,49.478c-2.954,7.956-5.63,12.713-13.677,19.864-5.942,5.28-22.2,12.862-32.1,18.4-7.39,4.129-11.817,6.541-13.759,8.129a4.781,4.781,0,0,0-1.765,3.712v25.067L66.892,140.37l-4.311-18.224a4.8,4.8,0,0,0-1.108-2.105c-8.819-9.774-22.142-24.549-23.163-25.724a4.807,4.807,0,0,0-2.633-1.626L13.708,87.665l10.776-11.39H51.767a4.8,4.8,0,0,0,4.086-2.283c2.11-3.434,4.556-8.325,7.4-13.98,4.805-9.582,10.781-22.262,16.056-28.42,6.234-7.27,12.56-11.841,20.516-14.814,17.7-6.613,35.963-7.309,44.313-7.246.153,8.843-.177,29.345-5.822,44.548Z" transform="translate(0.036 0.054)" fill="#38bdf8"/>
</svg>
