<svg xmlns="http://www.w3.org/2000/svg" width="120.953" height="153.986" viewBox="0 0 120.953 153.986">
  <g id="manager-svgrepo-com" transform="translate(-31.857)">
    <path id="Path_29" data-name="Path 29" d="M134.8,70.879a14.748,14.748,0,1,0,14.748,14.748A14.765,14.765,0,0,0,134.8,70.879Zm0,20.784a6.036,6.036,0,1,1,6.036-6.036A6.042,6.042,0,0,1,134.8,91.663Z" transform="translate(-42.47 -34.13)" fill="#38bdf8"/>
    <path id="Path_30" data-name="Path 30" d="M148.453,44.9h-9.385a48.91,48.91,0,0,0-2.675-6.446l6.64-6.639a4.357,4.357,0,0,0,0-6.161L127.159,9.776a4.358,4.358,0,0,0-6.161,0l-6.639,6.64a48.967,48.967,0,0,0-6.446-2.675V4.356A4.356,4.356,0,0,0,103.557,0H81.109a4.356,4.356,0,0,0-4.356,4.356v9.385a49,49,0,0,0-6.446,2.675L63.667,9.777a4.358,4.358,0,0,0-6.16,0L41.633,25.649a4.357,4.357,0,0,0,0,6.162l6.64,6.639A48.937,48.937,0,0,0,45.6,44.9H36.213a4.356,4.356,0,0,0-4.356,4.356V71.7a4.356,4.356,0,0,0,4.356,4.356H45.6A48.938,48.938,0,0,0,48.273,82.5l-6.64,6.639a4.357,4.357,0,0,0,0,6.162l15.874,15.873a4.358,4.358,0,0,0,6.161,0l3.842-3.842a4.338,4.338,0,0,0,.4.791l7.527,11.453V149.63a4.356,4.356,0,0,0,4.356,4.356h25.084a4.356,4.356,0,0,0,4.356-4.356V119.578l7.527-11.453a4.3,4.3,0,0,0,.4-.791L121,111.176a4.359,4.359,0,0,0,6.161,0L143.034,95.3a4.357,4.357,0,0,0,0-6.162l-6.64-6.639a48.994,48.994,0,0,0,2.675-6.446h9.385A4.356,4.356,0,0,0,152.81,71.7V49.252a4.358,4.358,0,0,0-4.357-4.356ZM108.761,104.43l-7.527,11.453a4.354,4.354,0,0,0-.715,2.392v27H84.147v-27a4.357,4.357,0,0,0-.715-2.392L75.905,104.43v-21.1a5.9,5.9,0,0,1,4-5.589l.931-.286,8.242,9.294a4.356,4.356,0,0,0,6.518,0l8.242-9.294.931.286a5.9,5.9,0,0,1,4,5.589v21.1Zm-1.282-34.971L103.711,68.3a4.354,4.354,0,0,0-4.537,1.274l-6.841,7.713-6.841-7.714A4.357,4.357,0,0,0,80.957,68.3l-3.768,1.157a14.6,14.6,0,0,0-8.387,7.2,28.574,28.574,0,1,1,47.061,0A14.6,14.6,0,0,0,107.479,69.458ZM144.1,67.344h-8.282a4.356,4.356,0,0,0-4.219,3.271,40.285,40.285,0,0,1-4.336,10.45,4.357,4.357,0,0,0,.67,5.3l5.862,5.861-9.713,9.712-5.862-5.861a4.287,4.287,0,0,0-.744-.581V86.567a36.259,36.259,0,1,0-50.28,0v8.925a4.278,4.278,0,0,0-.745.582l-5.862,5.861-9.713-9.712,5.862-5.861a4.357,4.357,0,0,0,.67-5.3,40.283,40.283,0,0,1-4.335-10.449,4.355,4.355,0,0,0-4.219-3.271H40.57V53.609h8.282a4.356,4.356,0,0,0,4.219-3.271,40.279,40.279,0,0,1,4.335-10.45,4.357,4.357,0,0,0-.67-5.3L50.876,28.73l9.713-9.712,5.862,5.861a4.356,4.356,0,0,0,5.3.67A40.3,40.3,0,0,1,82.2,21.214a4.355,4.355,0,0,0,3.271-4.219V8.713H99.2v8.282a4.356,4.356,0,0,0,3.271,4.219,40.29,40.29,0,0,1,10.45,4.336,4.357,4.357,0,0,0,5.3-.67l5.862-5.862,9.713,9.713-5.862,5.861a4.357,4.357,0,0,0-.67,5.3,40.286,40.286,0,0,1,4.335,10.45,4.355,4.355,0,0,0,4.219,3.271H144.1V67.344Z" fill="#38bdf8"/>
  </g>
</svg>
